<svg xmlns="http://www.w3.org/2000/svg" viewBox="18 -12 290 194" width="600" height="400">
<defs><clipPath id="head"><circle r="10"/></clipPath></defs>
<rect x="80" y="168" width="140" height="8" rx="4" fill="#203539"/><line x1="14" y1="176" x2="286" y2="176" stroke="#3f5d63" stroke-width="2" stroke-linecap="round"/>
<g><animateTransform attributeName="transform" type="translate" values="153.5 44.1;153.5 43.7;153.5 43.4;153.5 43.2;153.5 43.1;153.5 43.2;153.5 43.4;153.5 43.7;153.5 44.1;153.5 43.7;153.5 43.4;153.5 43.2;153.5 43.1;153.5 43.2;153.5 43.4;153.5 43.7;153.5 44.1" dur="1.3s" repeatCount="indefinite"/><animateTransform attributeName="transform" type="rotate" values="90.0;96.9;102.7;106.6;108.0;106.6;102.7;96.9;90.0;83.1;77.3;73.4;72.0;73.4;77.3;83.1;90.0" additive="sum" dur="1.3s" repeatCount="indefinite"/><path d="M 0.0 -5.2 L 25.0 -4.5 A 4.5 4.5 0 0 1 25.0 4.5 L 0.0 5.2 A 5.2 5.2 0 0 1 0.0 -5.2 Z" fill="#10181a" stroke="#10181a" stroke-width="4.4" stroke-linejoin="round"/></g>
<g><animateTransform attributeName="transform" type="translate" values="153.5 69.1;150.5 68.6;148.0 67.8;146.3 67.2;145.8 66.9;146.3 67.2;148.0 67.8;150.5 68.6;153.5 69.1;156.5 68.6;159.0 67.8;160.6 67.2;161.2 66.9;160.6 67.2;159.0 67.8;156.5 68.6;153.5 69.1" dur="1.3s" repeatCount="indefinite"/><animateTransform attributeName="transform" type="rotate" values="60.0;66.9;72.7;76.6;78.0;76.6;72.7;66.9;60.0;53.1;47.3;43.4;42.0;43.4;47.3;53.1;60.0" additive="sum" dur="1.3s" repeatCount="indefinite"/><path d="M 0.0 -4.2 L 25.0 -3.5 A 3.5 3.5 0 0 1 25.0 3.5 L 0.0 4.2 A 4.2 4.2 0 0 1 0.0 -4.2 Z" fill="#10181a" stroke="#10181a" stroke-width="4.4" stroke-linejoin="round"/></g>
<g><animateTransform attributeName="transform" type="translate" values="153.5 69.1;150.5 68.6;148.0 67.8;146.3 67.2;145.8 66.9;146.3 67.2;148.0 67.8;150.5 68.6;153.5 69.1;156.5 68.6;159.0 67.8;160.6 67.2;161.2 66.9;160.6 67.2;159.0 67.8;156.5 68.6;153.5 69.1" dur="1.3s" repeatCount="indefinite"/><animateTransform attributeName="transform" type="rotate" values="60.0;66.9;72.7;76.6;78.0;76.6;72.7;66.9;60.0;53.1;47.3;43.4;42.0;43.4;47.3;53.1;60.0" additive="sum" dur="1.3s" repeatCount="indefinite"/><path d="M 20.4 0 A 4.6 4.6 0 1 0 29.6 0 A 4.6 4.6 0 1 0 20.4 0 Z" fill="#10181a" stroke="#10181a" stroke-width="4.4" stroke-linejoin="round"/></g>
<g><animateTransform attributeName="transform" type="translate" values="150.0 94.0;150.0 93.6;150.0 93.3;150.0 93.1;150.0 93.0;150.0 93.1;150.0 93.3;150.0 93.6;150.0 94.0;150.0 93.6;150.0 93.3;150.0 93.1;150.0 93.0;150.0 93.1;150.0 93.3;150.0 93.6;150.0 94.0" dur="1.3s" repeatCount="indefinite"/><animateTransform attributeName="transform" type="rotate" values="88.0;88.0;88.0;88.0;88.0;88.0;88.0;88.0;88.0;76.5;66.8;60.3;58.0;60.3;66.8;76.5;88.0" additive="sum" dur="1.3s" repeatCount="indefinite"/><path d="M 0.0 -7.5 L 37.0 -5.8 A 5.8 5.8 0 0 1 37.0 5.8 L 0.0 7.5 A 7.5 7.5 0 0 1 0.0 -7.5 Z" fill="#10181a" stroke="#10181a" stroke-width="4.4" stroke-linejoin="round"/></g>
<g><animateTransform attributeName="transform" type="translate" values="151.3 131.0;151.3 130.6;151.3 130.3;151.3 130.1;151.3 130.0;151.3 130.1;151.3 130.3;151.3 130.6;151.3 131.0;158.6 129.6;164.6 127.3;168.3 125.2;169.6 124.4;168.3 125.2;164.6 127.3;158.6 129.6;151.3 131.0" dur="1.3s" repeatCount="indefinite"/><animateTransform attributeName="transform" type="rotate" values="92.1;92.1;92.1;92.1;92.1;92.1;92.1;92.1;92.1;95.1;97.7;99.4;100.0;99.4;97.7;95.1;92.1" additive="sum" dur="1.3s" repeatCount="indefinite"/><animateTransform attributeName="transform" type="scale" values="0.944 1;0.955 1;0.964 1;0.971 1;0.973 1;0.971 1;0.964 1;0.955 1;0.944 1;0.987 1;1.000 1;1.000 1;1.000 1;1.000 1;1.000 1;0.987 1;0.944 1" additive="sum" dur="1.3s" repeatCount="indefinite"/><path d="M 0.0 -5.8 L 35.0 -4.2 A 4.2 4.2 0 0 1 35.0 4.2 L 0.0 5.8 A 5.8 5.8 0 0 1 0.0 -5.8 Z" fill="#10181a" stroke="#10181a" stroke-width="4.4" stroke-linejoin="round"/></g>
<g><animateTransform attributeName="transform" type="translate" values="150.1 164.0;150.1 164.0;150.1 164.0;150.1 164.0;150.1 164.0;150.1 164.0;150.1 164.0;150.1 164.0;150.1 164.0;155.5 164.0;159.9 162.0;162.6 159.7;163.5 158.8;162.6 159.7;159.9 162.0;155.5 164.0;150.1 164.0" dur="1.3s" repeatCount="indefinite"/><animateTransform attributeName="transform" type="rotate" values="0.0;0.0;0.0;0.0;0.0;0.0;0.0;0.0;0.0;9.6;17.7;23.1;25.0;23.1;17.7;9.6;0.0" additive="sum" dur="1.3s" repeatCount="indefinite"/><path d="M -3 -4 H 10.0 A 4 4 0 0 1 10.0 4 H -3 A 4 4 0 0 1 -3 -4 Z" fill="#10181a" stroke="#10181a" stroke-width="4.4" stroke-linejoin="round"/></g>
<g><animateTransform attributeName="transform" type="translate" values="153.5 44.1;153.5 43.7;153.5 43.4;153.5 43.2;153.5 43.1;153.5 43.2;153.5 43.4;153.5 43.7;153.5 44.1;153.5 43.7;153.5 43.4;153.5 43.2;153.5 43.1;153.5 43.2;153.5 43.4;153.5 43.7;153.5 44.1" dur="1.3s" repeatCount="indefinite"/><animateTransform attributeName="transform" type="rotate" values="90.0;96.9;102.7;106.6;108.0;106.6;102.7;96.9;90.0;83.1;77.3;73.4;72.0;73.4;77.3;83.1;90.0" additive="sum" dur="1.3s" repeatCount="indefinite"/><path d="M 0.0 -5.2 L 25.0 -4.5 A 4.5 4.5 0 0 1 25.0 4.5 L 0.0 5.2 A 5.2 5.2 0 0 1 0.0 -5.2 Z" fill="#768961"/></g>
<g><animateTransform attributeName="transform" type="translate" values="153.5 69.1;150.5 68.6;148.0 67.8;146.3 67.2;145.8 66.9;146.3 67.2;148.0 67.8;150.5 68.6;153.5 69.1;156.5 68.6;159.0 67.8;160.6 67.2;161.2 66.9;160.6 67.2;159.0 67.8;156.5 68.6;153.5 69.1" dur="1.3s" repeatCount="indefinite"/><animateTransform attributeName="transform" type="rotate" values="60.0;66.9;72.7;76.6;78.0;76.6;72.7;66.9;60.0;53.1;47.3;43.4;42.0;43.4;47.3;53.1;60.0" additive="sum" dur="1.3s" repeatCount="indefinite"/><path d="M 0.0 -4.2 L 25.0 -3.5 A 3.5 3.5 0 0 1 25.0 3.5 L 0.0 4.2 A 4.2 4.2 0 0 1 0.0 -4.2 Z" fill="#a38d72"/></g>
<g><animateTransform attributeName="transform" type="translate" values="153.5 69.1;150.5 68.6;148.0 67.8;146.3 67.2;145.8 66.9;146.3 67.2;148.0 67.8;150.5 68.6;153.5 69.1;156.5 68.6;159.0 67.8;160.6 67.2;161.2 66.9;160.6 67.2;159.0 67.8;156.5 68.6;153.5 69.1" dur="1.3s" repeatCount="indefinite"/><animateTransform attributeName="transform" type="rotate" values="60.0;66.9;72.7;76.6;78.0;76.6;72.7;66.9;60.0;53.1;47.3;43.4;42.0;43.4;47.3;53.1;60.0" additive="sum" dur="1.3s" repeatCount="indefinite"/><path d="M 20.4 0 A 4.6 4.6 0 1 0 29.6 0 A 4.6 4.6 0 1 0 20.4 0 Z" fill="#a38d72"/></g>
<g><animateTransform attributeName="transform" type="translate" values="150.0 94.0;150.0 93.6;150.0 93.3;150.0 93.1;150.0 93.0;150.0 93.1;150.0 93.3;150.0 93.6;150.0 94.0;150.0 93.6;150.0 93.3;150.0 93.1;150.0 93.0;150.0 93.1;150.0 93.3;150.0 93.6;150.0 94.0" dur="1.3s" repeatCount="indefinite"/><animateTransform attributeName="transform" type="rotate" values="88.0;88.0;88.0;88.0;88.0;88.0;88.0;88.0;88.0;76.5;66.8;60.3;58.0;60.3;66.8;76.5;88.0" additive="sum" dur="1.3s" repeatCount="indefinite"/><path d="M 0.0 -7.5 L 37.0 -5.8 A 5.8 5.8 0 0 1 37.0 5.8 L 0.0 7.5 A 7.5 7.5 0 0 1 0.0 -7.5 Z" fill="#3b4f55"/></g>
<g><animateTransform attributeName="transform" type="translate" values="151.3 131.0;151.3 130.6;151.3 130.3;151.3 130.1;151.3 130.0;151.3 130.1;151.3 130.3;151.3 130.6;151.3 131.0;158.6 129.6;164.6 127.3;168.3 125.2;169.6 124.4;168.3 125.2;164.6 127.3;158.6 129.6;151.3 131.0" dur="1.3s" repeatCount="indefinite"/><animateTransform attributeName="transform" type="rotate" values="92.1;92.1;92.1;92.1;92.1;92.1;92.1;92.1;92.1;95.1;97.7;99.4;100.0;99.4;97.7;95.1;92.1" additive="sum" dur="1.3s" repeatCount="indefinite"/><animateTransform attributeName="transform" type="scale" values="0.944 1;0.955 1;0.964 1;0.971 1;0.973 1;0.971 1;0.964 1;0.955 1;0.944 1;0.987 1;1.000 1;1.000 1;1.000 1;1.000 1;1.000 1;0.987 1;0.944 1" additive="sum" dur="1.3s" repeatCount="indefinite"/><path d="M 0.0 -5.8 L 35.0 -4.2 A 4.2 4.2 0 0 1 35.0 4.2 L 0.0 5.8 A 5.8 5.8 0 0 1 0.0 -5.8 Z" fill="#3b4f55"/></g>
<g><animateTransform attributeName="transform" type="translate" values="150.1 164.0;150.1 164.0;150.1 164.0;150.1 164.0;150.1 164.0;150.1 164.0;150.1 164.0;150.1 164.0;150.1 164.0;155.5 164.0;159.9 162.0;162.6 159.7;163.5 158.8;162.6 159.7;159.9 162.0;155.5 164.0;150.1 164.0" dur="1.3s" repeatCount="indefinite"/><animateTransform attributeName="transform" type="rotate" values="0.0;0.0;0.0;0.0;0.0;0.0;0.0;0.0;0.0;9.6;17.7;23.1;25.0;23.1;17.7;9.6;0.0" additive="sum" dur="1.3s" repeatCount="indefinite"/><path d="M -3 -4 H 10.0 A 4 4 0 0 1 10.0 4 H -3 A 4 4 0 0 1 -3 -4 Z" fill="#614e3f"/></g>
<g><animateTransform attributeName="transform" type="translate" values="153.5 44.1;153.5 43.7;153.5 43.4;153.5 43.2;153.5 43.1;153.5 43.2;153.5 43.4;153.5 43.7;153.5 44.1;153.5 43.7;153.5 43.4;153.5 43.2;153.5 43.1;153.5 43.2;153.5 43.4;153.5 43.7;153.5 44.1" dur="1.3s" repeatCount="indefinite"/><animateTransform attributeName="transform" type="rotate" values="-82.0;-82.0;-82.0;-82.0;-82.0;-82.0;-82.0;-82.0;-82.0;-82.0;-82.0;-82.0;-82.0;-82.0;-82.0;-82.0;-82.0" additive="sum" dur="1.3s" repeatCount="indefinite"/><path d="M 0.0 -5.5 L 25.0 -5.0 A 5.0 5.0 0 0 1 25.0 5.0 L 0.0 5.5 A 5.5 5.5 0 0 1 0.0 -5.5 Z" fill="#10181a" stroke="#10181a" stroke-width="4.4" stroke-linejoin="round"/></g>
<g><animateTransform attributeName="transform" type="translate" values="153.5 44.1;153.5 43.7;153.5 43.4;153.5 43.2;153.5 43.1;153.5 43.2;153.5 43.4;153.5 43.7;153.5 44.1;153.5 43.7;153.5 43.4;153.5 43.2;153.5 43.1;153.5 43.2;153.5 43.4;153.5 43.7;153.5 44.1" dur="1.3s" repeatCount="indefinite"/><animateTransform attributeName="transform" type="rotate" values="-82.0;-82.0;-82.0;-82.0;-82.0;-82.0;-82.0;-82.0;-82.0;-82.0;-82.0;-82.0;-82.0;-82.0;-82.0;-82.0;-82.0" additive="sum" dur="1.3s" repeatCount="indefinite"/><path d="M 0.0 -5.5 L 25.0 -5.0 A 5.0 5.0 0 0 1 25.0 5.0 L 0.0 5.5 A 5.5 5.5 0 0 1 0.0 -5.5 Z" fill="#e9c9a3"/></g>
<g><animateTransform attributeName="transform" type="translate" values="150.0 94.0;150.0 93.6;150.0 93.3;150.0 93.1;150.0 93.0;150.0 93.1;150.0 93.3;150.0 93.6;150.0 94.0;150.0 93.6;150.0 93.3;150.0 93.1;150.0 93.0;150.0 93.1;150.0 93.3;150.0 93.6;150.0 94.0" dur="1.3s" repeatCount="indefinite"/><animateTransform attributeName="transform" type="rotate" values="-86.0;-86.0;-86.0;-86.0;-86.0;-86.0;-86.0;-86.0;-86.0;-86.0;-86.0;-86.0;-86.0;-86.0;-86.0;-86.0;-86.0" additive="sum" dur="1.3s" repeatCount="indefinite"/><path d="M 0.0 -8.0 L 25.0 -7.2 A 7.2 7.2 0 0 1 25.0 7.2 L 0.0 8.0 A 8.0 8.0 0 0 1 0.0 -8.0 Z" fill="#10181a" stroke="#10181a" stroke-width="4.4" stroke-linejoin="round"/></g>
<g><animateTransform attributeName="transform" type="translate" values="150.0 94.0;150.0 93.6;150.0 93.3;150.0 93.1;150.0 93.0;150.0 93.1;150.0 93.3;150.0 93.6;150.0 94.0;150.0 93.6;150.0 93.3;150.0 93.1;150.0 93.0;150.0 93.1;150.0 93.3;150.0 93.6;150.0 94.0" dur="1.3s" repeatCount="indefinite"/><animateTransform attributeName="transform" type="rotate" values="-86.0;-86.0;-86.0;-86.0;-86.0;-86.0;-86.0;-86.0;-86.0;-86.0;-86.0;-86.0;-86.0;-86.0;-86.0;-86.0;-86.0" additive="sum" dur="1.3s" repeatCount="indefinite"/><path d="M 0.0 -8.0 L 13.8 -7.5 A 7.5 7.5 0 0 1 13.8 7.5 L 0.0 8.0 A 8.0 8.0 0 0 1 0.0 -8.0 Z" fill="#10181a" stroke="#10181a" stroke-width="4.4" stroke-linejoin="round"/></g>
<g><animateTransform attributeName="transform" type="translate" values="151.7 69.1;151.7 68.7;151.7 68.4;151.7 68.1;151.7 68.1;151.7 68.1;151.7 68.4;151.7 68.7;151.7 69.1;151.7 68.7;151.7 68.4;151.7 68.1;151.7 68.1;151.7 68.1;151.7 68.4;151.7 68.7;151.7 69.1" dur="1.3s" repeatCount="indefinite"/><animateTransform attributeName="transform" type="rotate" values="-86.0;-86.0;-86.0;-86.0;-86.0;-86.0;-86.0;-86.0;-86.0;-86.0;-86.0;-86.0;-86.0;-86.0;-86.0;-86.0;-86.0" additive="sum" dur="1.3s" repeatCount="indefinite"/><path d="M 0.0 -7.2 L 25.0 -7.0 A 7.0 7.0 0 0 1 25.0 7.0 L 0.0 7.2 A 7.2 7.2 0 0 1 0.0 -7.2 Z" fill="#10181a" stroke="#10181a" stroke-width="4.4" stroke-linejoin="round"/></g>
<g><animateTransform attributeName="transform" type="translate" values="150.0 94.0;150.0 93.6;150.0 93.3;150.0 93.1;150.0 93.0;150.0 93.1;150.0 93.3;150.0 93.6;150.0 94.0;150.0 93.6;150.0 93.3;150.0 93.1;150.0 93.0;150.0 93.1;150.0 93.3;150.0 93.6;150.0 94.0" dur="1.3s" repeatCount="indefinite"/><animateTransform attributeName="transform" type="rotate" values="-86.0;-86.0;-86.0;-86.0;-86.0;-86.0;-86.0;-86.0;-86.0;-86.0;-86.0;-86.0;-86.0;-86.0;-86.0;-86.0;-86.0" additive="sum" dur="1.3s" repeatCount="indefinite"/><path d="M 0.0 -8.0 L 25.0 -7.2 A 7.2 7.2 0 0 1 25.0 7.2 L 0.0 8.0 A 8.0 8.0 0 0 1 0.0 -8.0 Z" fill="#a8c48a"/></g>
<g><animateTransform attributeName="transform" type="translate" values="150.0 94.0;150.0 93.6;150.0 93.3;150.0 93.1;150.0 93.0;150.0 93.1;150.0 93.3;150.0 93.6;150.0 94.0;150.0 93.6;150.0 93.3;150.0 93.1;150.0 93.0;150.0 93.1;150.0 93.3;150.0 93.6;150.0 94.0" dur="1.3s" repeatCount="indefinite"/><animateTransform attributeName="transform" type="rotate" values="-86.0;-86.0;-86.0;-86.0;-86.0;-86.0;-86.0;-86.0;-86.0;-86.0;-86.0;-86.0;-86.0;-86.0;-86.0;-86.0;-86.0" additive="sum" dur="1.3s" repeatCount="indefinite"/><path d="M 0.0 -8.0 L 13.8 -7.5 A 7.5 7.5 0 0 1 13.8 7.5 L 0.0 8.0 A 8.0 8.0 0 0 1 0.0 -8.0 Z" fill="#55717a"/></g>
<g><animateTransform attributeName="transform" type="translate" values="151.7 69.1;151.7 68.7;151.7 68.4;151.7 68.1;151.7 68.1;151.7 68.1;151.7 68.4;151.7 68.7;151.7 69.1;151.7 68.7;151.7 68.4;151.7 68.1;151.7 68.1;151.7 68.1;151.7 68.4;151.7 68.7;151.7 69.1" dur="1.3s" repeatCount="indefinite"/><animateTransform attributeName="transform" type="rotate" values="-86.0;-86.0;-86.0;-86.0;-86.0;-86.0;-86.0;-86.0;-86.0;-86.0;-86.0;-86.0;-86.0;-86.0;-86.0;-86.0;-86.0" additive="sum" dur="1.3s" repeatCount="indefinite"/><path d="M 0.0 -7.2 L 25.0 -7.0 A 7.0 7.0 0 0 1 25.0 7.0 L 0.0 7.2 A 7.2 7.2 0 0 1 0.0 -7.2 Z" fill="#a8c48a"/></g>
<g><animateTransform attributeName="transform" type="translate" values="157.0 19.4;157.0 19.0;157.0 18.7;157.0 18.4;157.0 18.4;157.0 18.4;157.0 18.7;157.0 19.0;157.0 19.4;157.0 19.0;157.0 18.7;157.0 18.4;157.0 18.4;157.0 18.4;157.0 18.7;157.0 19.0;157.0 19.4" dur="1.3s" repeatCount="indefinite"/><circle r="12.2" fill="#10181a"/><circle r="10" fill="#e9c9a3"/><circle cx="-3.9" cy="-7.0" r="10.0" fill="#6d4a34" clip-path="url(#head)"></circle></g>
<g><animateTransform attributeName="transform" type="translate" values="150.0 94.0;150.0 93.6;150.0 93.3;150.0 93.1;150.0 93.0;150.0 93.1;150.0 93.3;150.0 93.6;150.0 94.0;150.0 93.6;150.0 93.3;150.0 93.1;150.0 93.0;150.0 93.1;150.0 93.3;150.0 93.6;150.0 94.0" dur="1.3s" repeatCount="indefinite"/><animateTransform attributeName="transform" type="rotate" values="88.0;76.5;66.8;60.3;58.0;60.3;66.8;76.5;88.0;88.0;88.0;88.0;88.0;88.0;88.0;88.0;88.0" additive="sum" dur="1.3s" repeatCount="indefinite"/><path d="M 0.0 -7.5 L 37.0 -5.8 A 5.8 5.8 0 0 1 37.0 5.8 L 0.0 7.5 A 7.5 7.5 0 0 1 0.0 -7.5 Z" fill="#10181a" stroke="#10181a" stroke-width="4.4" stroke-linejoin="round"/></g>
<g><animateTransform attributeName="transform" type="translate" values="151.3 131.0;158.6 129.6;164.6 127.3;168.3 125.2;169.6 124.4;168.3 125.2;164.6 127.3;158.6 129.6;151.3 131.0;151.3 130.6;151.3 130.3;151.3 130.1;151.3 130.0;151.3 130.1;151.3 130.3;151.3 130.6;151.3 131.0" dur="1.3s" repeatCount="indefinite"/><animateTransform attributeName="transform" type="rotate" values="92.1;95.1;97.7;99.4;100.0;99.4;97.7;95.1;92.1;92.1;92.1;92.1;92.1;92.1;92.1;92.1;92.1" additive="sum" dur="1.3s" repeatCount="indefinite"/><animateTransform attributeName="transform" type="scale" values="0.944 1;0.987 1;1.000 1;1.000 1;1.000 1;1.000 1;1.000 1;0.987 1;0.944 1;0.955 1;0.964 1;0.971 1;0.973 1;0.971 1;0.964 1;0.955 1;0.944 1" additive="sum" dur="1.3s" repeatCount="indefinite"/><path d="M 0.0 -5.8 L 35.0 -4.2 A 4.2 4.2 0 0 1 35.0 4.2 L 0.0 5.8 A 5.8 5.8 0 0 1 0.0 -5.8 Z" fill="#10181a" stroke="#10181a" stroke-width="4.4" stroke-linejoin="round"/></g>
<g><animateTransform attributeName="transform" type="translate" values="150.1 164.0;155.5 164.0;159.9 162.0;162.6 159.7;163.5 158.8;162.6 159.7;159.9 162.0;155.5 164.0;150.1 164.0;150.1 164.0;150.1 164.0;150.1 164.0;150.1 164.0;150.1 164.0;150.1 164.0;150.1 164.0;150.1 164.0" dur="1.3s" repeatCount="indefinite"/><animateTransform attributeName="transform" type="rotate" values="0.0;9.6;17.7;23.1;25.0;23.1;17.7;9.6;0.0;0.0;0.0;0.0;0.0;0.0;0.0;0.0;0.0" additive="sum" dur="1.3s" repeatCount="indefinite"/><path d="M -3 -4 H 10.0 A 4 4 0 0 1 10.0 4 H -3 A 4 4 0 0 1 -3 -4 Z" fill="#10181a" stroke="#10181a" stroke-width="4.4" stroke-linejoin="round"/></g>
<g><animateTransform attributeName="transform" type="translate" values="150.0 94.0;150.0 93.6;150.0 93.3;150.0 93.1;150.0 93.0;150.0 93.1;150.0 93.3;150.0 93.6;150.0 94.0;150.0 93.6;150.0 93.3;150.0 93.1;150.0 93.0;150.0 93.1;150.0 93.3;150.0 93.6;150.0 94.0" dur="1.3s" repeatCount="indefinite"/><animateTransform attributeName="transform" type="rotate" values="88.0;76.5;66.8;60.3;58.0;60.3;66.8;76.5;88.0;88.0;88.0;88.0;88.0;88.0;88.0;88.0;88.0" additive="sum" dur="1.3s" repeatCount="indefinite"/><path d="M 0.0 -7.5 L 37.0 -5.8 A 5.8 5.8 0 0 1 37.0 5.8 L 0.0 7.5 A 7.5 7.5 0 0 1 0.0 -7.5 Z" fill="#55717a"/></g>
<g><animateTransform attributeName="transform" type="translate" values="151.3 131.0;158.6 129.6;164.6 127.3;168.3 125.2;169.6 124.4;168.3 125.2;164.6 127.3;158.6 129.6;151.3 131.0;151.3 130.6;151.3 130.3;151.3 130.1;151.3 130.0;151.3 130.1;151.3 130.3;151.3 130.6;151.3 131.0" dur="1.3s" repeatCount="indefinite"/><animateTransform attributeName="transform" type="rotate" values="92.1;95.1;97.7;99.4;100.0;99.4;97.7;95.1;92.1;92.1;92.1;92.1;92.1;92.1;92.1;92.1;92.1" additive="sum" dur="1.3s" repeatCount="indefinite"/><animateTransform attributeName="transform" type="scale" values="0.944 1;0.987 1;1.000 1;1.000 1;1.000 1;1.000 1;1.000 1;0.987 1;0.944 1;0.955 1;0.964 1;0.971 1;0.973 1;0.971 1;0.964 1;0.955 1;0.944 1" additive="sum" dur="1.3s" repeatCount="indefinite"/><path d="M 0.0 -5.8 L 35.0 -4.2 A 4.2 4.2 0 0 1 35.0 4.2 L 0.0 5.8 A 5.8 5.8 0 0 1 0.0 -5.8 Z" fill="#55717a"/></g>
<g><animateTransform attributeName="transform" type="translate" values="150.1 164.0;155.5 164.0;159.9 162.0;162.6 159.7;163.5 158.8;162.6 159.7;159.9 162.0;155.5 164.0;150.1 164.0;150.1 164.0;150.1 164.0;150.1 164.0;150.1 164.0;150.1 164.0;150.1 164.0;150.1 164.0;150.1 164.0" dur="1.3s" repeatCount="indefinite"/><animateTransform attributeName="transform" type="rotate" values="0.0;9.6;17.7;23.1;25.0;23.1;17.7;9.6;0.0;0.0;0.0;0.0;0.0;0.0;0.0;0.0;0.0" additive="sum" dur="1.3s" repeatCount="indefinite"/><path d="M -3 -4 H 10.0 A 4 4 0 0 1 10.0 4 H -3 A 4 4 0 0 1 -3 -4 Z" fill="#8a6f5a"/></g>
<g><animateTransform attributeName="transform" type="translate" values="153.5 44.1;153.5 43.7;153.5 43.4;153.5 43.2;153.5 43.1;153.5 43.2;153.5 43.4;153.5 43.7;153.5 44.1;153.5 43.7;153.5 43.4;153.5 43.2;153.5 43.1;153.5 43.2;153.5 43.4;153.5 43.7;153.5 44.1" dur="1.3s" repeatCount="indefinite"/><animateTransform attributeName="transform" type="rotate" values="90.0;83.1;77.3;73.4;72.0;73.4;77.3;83.1;90.0;96.9;102.7;106.6;108.0;106.6;102.7;96.9;90.0" additive="sum" dur="1.3s" repeatCount="indefinite"/><path d="M 0.0 -5.2 L 25.0 -4.5 A 4.5 4.5 0 0 1 25.0 4.5 L 0.0 5.2 A 5.2 5.2 0 0 1 0.0 -5.2 Z" fill="#10181a" stroke="#10181a" stroke-width="4.4" stroke-linejoin="round"/></g>
<g><animateTransform attributeName="transform" type="translate" values="153.5 69.1;156.5 68.6;159.0 67.8;160.6 67.2;161.2 66.9;160.6 67.2;159.0 67.8;156.5 68.6;153.5 69.1;150.5 68.6;148.0 67.8;146.3 67.2;145.8 66.9;146.3 67.2;148.0 67.8;150.5 68.6;153.5 69.1" dur="1.3s" repeatCount="indefinite"/><animateTransform attributeName="transform" type="rotate" values="60.0;53.1;47.3;43.4;42.0;43.4;47.3;53.1;60.0;66.9;72.7;76.6;78.0;76.6;72.7;66.9;60.0" additive="sum" dur="1.3s" repeatCount="indefinite"/><path d="M 0.0 -4.2 L 25.0 -3.5 A 3.5 3.5 0 0 1 25.0 3.5 L 0.0 4.2 A 4.2 4.2 0 0 1 0.0 -4.2 Z" fill="#10181a" stroke="#10181a" stroke-width="4.4" stroke-linejoin="round"/></g>
<g><animateTransform attributeName="transform" type="translate" values="153.5 69.1;156.5 68.6;159.0 67.8;160.6 67.2;161.2 66.9;160.6 67.2;159.0 67.8;156.5 68.6;153.5 69.1;150.5 68.6;148.0 67.8;146.3 67.2;145.8 66.9;146.3 67.2;148.0 67.8;150.5 68.6;153.5 69.1" dur="1.3s" repeatCount="indefinite"/><animateTransform attributeName="transform" type="rotate" values="60.0;53.1;47.3;43.4;42.0;43.4;47.3;53.1;60.0;66.9;72.7;76.6;78.0;76.6;72.7;66.9;60.0" additive="sum" dur="1.3s" repeatCount="indefinite"/><path d="M 20.4 0 A 4.6 4.6 0 1 0 29.6 0 A 4.6 4.6 0 1 0 20.4 0 Z" fill="#10181a" stroke="#10181a" stroke-width="4.4" stroke-linejoin="round"/></g>
<g><animateTransform attributeName="transform" type="translate" values="153.5 44.1;153.5 43.7;153.5 43.4;153.5 43.2;153.5 43.1;153.5 43.2;153.5 43.4;153.5 43.7;153.5 44.1;153.5 43.7;153.5 43.4;153.5 43.2;153.5 43.1;153.5 43.2;153.5 43.4;153.5 43.7;153.5 44.1" dur="1.3s" repeatCount="indefinite"/><animateTransform attributeName="transform" type="rotate" values="90.0;83.1;77.3;73.4;72.0;73.4;77.3;83.1;90.0;96.9;102.7;106.6;108.0;106.6;102.7;96.9;90.0" additive="sum" dur="1.3s" repeatCount="indefinite"/><path d="M 0.0 -5.2 L 25.0 -4.5 A 4.5 4.5 0 0 1 25.0 4.5 L 0.0 5.2 A 5.2 5.2 0 0 1 0.0 -5.2 Z" fill="#a8c48a"/></g>
<g><animateTransform attributeName="transform" type="translate" values="153.5 69.1;156.5 68.6;159.0 67.8;160.6 67.2;161.2 66.9;160.6 67.2;159.0 67.8;156.5 68.6;153.5 69.1;150.5 68.6;148.0 67.8;146.3 67.2;145.8 66.9;146.3 67.2;148.0 67.8;150.5 68.6;153.5 69.1" dur="1.3s" repeatCount="indefinite"/><animateTransform attributeName="transform" type="rotate" values="60.0;53.1;47.3;43.4;42.0;43.4;47.3;53.1;60.0;66.9;72.7;76.6;78.0;76.6;72.7;66.9;60.0" additive="sum" dur="1.3s" repeatCount="indefinite"/><path d="M 0.0 -4.2 L 25.0 -3.5 A 3.5 3.5 0 0 1 25.0 3.5 L 0.0 4.2 A 4.2 4.2 0 0 1 0.0 -4.2 Z" fill="#e9c9a3"/></g>
<g><animateTransform attributeName="transform" type="translate" values="153.5 69.1;156.5 68.6;159.0 67.8;160.6 67.2;161.2 66.9;160.6 67.2;159.0 67.8;156.5 68.6;153.5 69.1;150.5 68.6;148.0 67.8;146.3 67.2;145.8 66.9;146.3 67.2;148.0 67.8;150.5 68.6;153.5 69.1" dur="1.3s" repeatCount="indefinite"/><animateTransform attributeName="transform" type="rotate" values="60.0;53.1;47.3;43.4;42.0;43.4;47.3;53.1;60.0;66.9;72.7;76.6;78.0;76.6;72.7;66.9;60.0" additive="sum" dur="1.3s" repeatCount="indefinite"/><path d="M 20.4 0 A 4.6 4.6 0 1 0 29.6 0 A 4.6 4.6 0 1 0 20.4 0 Z" fill="#e9c9a3"/></g>
</svg>
